<?xml version="1.0" encoding="UTF-8" standalone="no"?>
<svg
   xmlns:dc="http://purl.org/dc/elements/1.1/"
   xmlns:cc="http://creativecommons.org/ns#"
   xmlns:rdf="http://www.w3.org/1999/02/22-rdf-syntax-ns#"
   xmlns:svg="http://www.w3.org/2000/svg"
   xmlns="http://www.w3.org/2000/svg"
   xmlns:xlink="http://www.w3.org/1999/xlink"
   version="1.1"
   id="Layer_1"
   x="0px"
   y="0px"
   width="999.551px"
   height="999.551px"
   viewBox="0 0 999.551 999.551"
   enable-background="new 0 0 999.551 999.551"
   xml:space="preserve"><metadata
     id="metadata141"><rdf:RDF><cc:Work
         rdf:about=""><dc:format>image/svg+xml</dc:format><dc:type
           rdf:resource="http://purl.org/dc/dcmitype/StillImage" /><dc:title></dc:title></cc:Work></rdf:RDF></metadata><defs
     id="defs139"><defs
       id="defs3"><rect
         y="0"
         x="0"
         height="999.55103"
         width="999.55103"
         id="SVGID_1_" /></defs><clipPath
       id="SVGID_2_"><use
         height="100%"
         width="100%"
         y="0"
         x="0"
         style="overflow:visible"
         id="use5"
         overflow="visible"
         xlink:href="#SVGID_1_" /></clipPath><defs
       id="defs33"><rect
         id="SVGID_7_"
         width="999.55103"
         height="999.55103"
         x="0"
         y="0" /></defs><clipPath
       id="SVGID_8_"><use
         xlink:href="#SVGID_7_"
         overflow="visible"
         id="use35"
         style="overflow:visible"
         x="0"
         y="0"
         width="100%"
         height="100%" /></clipPath><clipPath
       id="SVGID_8_-0"><use
         xlink:href="#SVGID_7_"
         overflow="visible"
         id="use35-0"
         style="overflow:visible"
         x="0"
         y="0"
         width="100%"
         height="100%" /></clipPath></defs><rect
     style="fill:#f3df49"
     y="0"
     x="0"
     id="rect8"
     height="999.55103"
     width="999.55103"
     clip-path="url(#SVGID_2_)" /><g
     id="g28"
     clip-path="url(#SVGID_2_)"><defs
       id="defs11"><rect
         y="0"
         x="0"
         height="999.55103"
         width="999.55103"
         id="SVGID_3_" /></defs><clipPath
       id="SVGID_4_"><use
         height="100%"
         width="100%"
         y="0"
         x="0"
         style="overflow:visible"
         id="use13"
         overflow="visible"
         xlink:href="#SVGID_3_" /></clipPath><g
       style="opacity:0.8"
       id="g26"
       clip-path="url(#SVGID_4_)"><g
         id="g24"><defs
           id="defs17"><rect
             height="876.00201"
             width="1042.01"
             y="-29.839001"
             x="-20.309999"
             id="SVGID_5_" /></defs><clipPath
           id="SVGID_6_"><use
             height="100%"
             width="100%"
             y="0"
             x="0"
             style="overflow:visible"
             id="use19"
             overflow="visible"
             xlink:href="#SVGID_5_" /></clipPath><polygon
           style="fill:#ffffff"
           id="polygon22"
           points="1020.702,-29.837 1021.702,101.163 -20.31,846.163 -20.31,704.261 645.69,-29.837 "
           clip-path="url(#SVGID_6_)" /></g></g></g><polygon
     style="fill:#ff00d7"
     id="polygon30"
     points="999.551,402.522 264.69,178.498 999.551,585.263 "
     clip-path="url(#SVGID_2_)"
     transform="translate(102)" /><g
     clip-path="url(#SVGID_8_)"
     id="g48"
     transform="translate(102)"><g
       id="g46"><defs
         id="defs39"><rect
           id="SVGID_9_"
           x="264.69"
           y="178.49699"
           width="756.01001"
           height="553" /></defs><clipPath
         id="SVGID_10_"><use
           xlink:href="#SVGID_9_"
           overflow="visible"
           id="use41"
           style="overflow:visible"
           x="0"
           y="0"
           width="100%"
           height="100%" /></clipPath><polygon
         clip-path="url(#SVGID_10_)"
         points="264.69,178.497 1020.702,597.496 1020.702,731.496 "
         id="polygon44"
         style="fill:#ff0043" /></g></g><g
     clip-path="url(#SVGID_8_)"
     id="g64"
     style="opacity:0.9"><g
       id="g62"><defs
         id="defs55"><rect
           id="SVGID_11_"
           x="-20.309999"
           y="200.22301"
           width="1042.01"
           height="751.94" /></defs><clipPath
         id="SVGID_12_"><use
           xlink:href="#SVGID_11_"
           overflow="visible"
           id="use57"
           style="overflow:visible"
           x="0"
           y="0"
           width="100%"
           height="100%" /></clipPath><polygon
         clip-path="url(#SVGID_12_)"
         points="-20.31,875.163 -20.31,952.163 1021.702,421.223 1021.702,200.223 "
         id="polygon60"
         style="fill:#ffffff" /></g></g><polygon
     clip-path="url(#SVGID_8_-0)"
     points="42.508,310.673 46.508,310.673 47.842,306.006 49.176,295.339 49.842,258.673 53.176,254.006 59.176,254.673 75.842,250.673 77.842,255.339 97.842,294.006 99.176,302.006 97.842,310.673 101.176,314.006 108.509,314.006 110.176,311.339 109.509,306.006 107.176,297.339 91.286,263.339 91.286,255.339 101.176,255.339 106.509,253.339 135.176,270.881 159.842,270.881 155.842,293.339 137.842,297.339 132.509,292.339 127.842,292.673 123.509,296.006 122.509,301.673 134.556,304.602 142.842,304.673 153.509,303.339 152.509,317.339 147.509,338.339 146.842,347.673 142.509,351.339 146.842,359.339 151.509,361.339 155.509,360.007 157.176,353.339 156.367,343.104 164.842,316.339 174.842,299.339 177.842,298.673 206.509,270.881 215.842,242.673 214.509,228.006 233.176,195.339 243.842,197.339 259.842,212.006 263.842,222.006 267.176,224.673 274.509,223.339 275.509,221.673 279.842,220.006 283.176,206.006 278.509,198.673 269.842,168.673 272.509,162.673 265.176,147.673 269.509,146.673 276.509,131.339 261.842,140.006 260.842,143.673 257.176,143.006 257.176,141.006 266.451,133.277 266.842,131.339 248.509,139.006 241.842,143.339 221.842,148.673 191.176,166.673 171.842,187.339 159.842,192.673 152.509,192.673 125.176,185.339 115.842,177.339 99.176,174.006 75.842,180.006 67.509,180.339 47.176,182.673 28.508,176.006 29.508,183.006 33.386,188.441 41.508,194.006 57.176,196.006 63.176,193.339 56.508,207.673 57.176,230.006 53.842,237.339 40.842,243.673 41.176,294.006 39.176,297.673 36.508,301.339 36.508,306.006 "
     id="polygon52"
     style="clip-rule:evenodd;fill-rule:evenodd"
     transform="translate(102.158,-1.121975)" /><g
     clip-path="url(#SVGID_8_)"
     id="g76"
     transform="translate(102)"><g
       id="g74"><defs
         id="defs67"><rect
           id="SVGID_13_"
           x="257.69"
           y="175.83"
           width="430"
           height="845.33301" /></defs><clipPath
         id="SVGID_14_"><use
           xlink:href="#SVGID_13_"
           overflow="visible"
           id="use69"
           style="overflow:visible"
           x="0"
           y="0"
           width="100%"
           height="100%" /></clipPath><polygon
         clip-path="url(#SVGID_14_)"
         points="257.69,175.83 687.69,1021.163 358.69,1021.163 "
         id="polygon72"
         style="fill:#44da3c" /></g></g><polygon
     clip-path="url(#SVGID_8_)"
     points="1021.702,1021.163 915.69,1021.163 257.69,175.83 1021.702,937.55 "
     id="polygon78"
     style="fill:#118ef4"
     transform="translate(102)" /><g
     clip-path="url(#SVGID_8_)"
     id="g90"
     transform="translate(102)"><g
       id="g88"><defs
         id="defs81"><rect
           id="SVGID_15_"
           x="257.69"
           y="175.83"
           width="658"
           height="845.33301" /></defs><clipPath
         id="SVGID_16_"><use
           xlink:href="#SVGID_15_"
           overflow="visible"
           id="use83"
           style="overflow:visible"
           x="0"
           y="0"
           width="100%"
           height="100%" /></clipPath><polygon
         clip-path="url(#SVGID_16_)"
         points="257.69,175.83 915.69,1021.163 687.69,1021.163 "
         id="polygon86"
         style="fill:#24d6ff" /></g></g><g
     id="g221"
     transform="matrix(0.8236003,0,0,0.8236003,111.70965,70.15081)"><path
       transform="translate(-66.707323,-99.531561)"
       style="clip-rule:evenodd;fill-rule:evenodd"
       id="path94"
       d="m 838.131,566.441 c -24.402,15.668 -48.576,31.188 -72.512,46.558 -5.27,-7.082 -9.745,-14.166 -15.265,-20.313 -16.903,-18.829 -38.401,-23.7 -61.892,-16.751 -33.945,10.041 -33.499,50.102 -16.319,66.752 9.391,9.102 20.725,15.021 32.396,20.351 23.004,10.505 46.363,20.257 69.138,31.234 22.595,10.891 43.62,24.341 60.733,43.131 18.306,20.099 27.648,44.048 30.254,70.809 2.271,23.334 0.596,46.277 -8.436,68.196 -14.023,34.036 -39.602,56.367 -73.768,67.851 -60.962,20.489 -120.751,17.111 -177.644,-14.249 -27.492,-15.155 -48.005,-37.746 -62.858,-65.413 -0.472,-0.878 -0.915,-1.772 -1.315,-2.685 -0.125,-0.284 -0.06,-0.65 -0.126,-1.61 25.043,-14.504 50.323,-29.144 75.567,-43.763 5.635,7.519 10.755,14.89 16.419,21.815 27.962,34.188 70.494,40.604 104.391,30.512 12.324,-3.67 22.744,-10.486 29.324,-21.905 9.769,-16.956 6.287,-39.584 -9.536,-52.016 -10.347,-8.129 -22.21,-14.659 -34.119,-20.399 -22.773,-10.975 -46.281,-20.422 -69.076,-31.355 -20.545,-9.854 -39.201,-22.697 -54.511,-39.874 -20.284,-22.759 -29.329,-49.835 -30.698,-79.915 -1.473,-32.36 6.312,-61.776 27.52,-86.85 17.353,-20.519 39.634,-33.34 65.46,-39.938 31.804,-8.123 63.719,-7.751 95.259,1.206 35.324,10.032 64.608,34.934 81.614,68.621"
       clip-path="url(#SVGID_8_)" /><path
       transform="translate(-66.707323,-99.531561)"
       style="clip-rule:evenodd;fill-rule:evenodd"
       id="path96"
       d="m 210.204,870.43 c 25.256,-15.286 50.53,-30.584 76.177,-46.107 2.049,3.449 3.564,6.616 5.631,9.368 6.769,9.009 12.911,18.688 20.8,26.612 16.78,16.854 48.962,13.871 62.398,5.996 12.323,-7.222 17.146,-19.062 19.186,-32.312 0.983,-6.387 1.37,-12.925 1.376,-19.395 0.081,-103.63 0.056,-207.261 0.058,-310.891 0,-7.393 0.006,-7.398 7.231,-7.399 27.157,-0.003 54.314,0.083 81.471,-0.087 4.272,-0.026 5.682,1.025 5.676,5.542 -0.129,103.464 -0.107,206.929 -0.094,310.393 0.003,23.118 -2.29,45.851 -10.744,67.63 -13.041,33.597 -36.542,56.685 -70.751,67.652 -43.169,13.841 -86.338,13.215 -128.276,-5.077 -32.06,-13.983 -54.255,-38.418 -69.461,-69.535 -0.282,-0.579 -0.363,-1.255 -0.678,-2.39"
       clip-path="url(#SVGID_8_)" /></g><g
     id="g233"
     transform="rotate(-90,788.19402,1012.202)"><path
       id="path98"
       d="m 932.186,493.708 c 26.966,0 42.086,15.373 42.086,38.054 0,22.681 -15.247,38.054 -42.086,38.054 -26.966,0 -42.843,-15.373 -42.843,-38.054 0,-22.682 15.877,-38.054 42.843,-38.054 m 0,53.931 c 14.868,0 23.437,-6.049 23.437,-15.877 0,-9.829 -8.568,-15.877 -23.437,-15.877 -14.869,0 -24.193,6.048 -24.193,15.877 -0.001,9.828 9.323,15.877 24.193,15.877"
       clip-path="url(#SVGID_8_)" /><path
       id="path100"
       d="m 932.941,595.011 39.818,-20.917 v 24.193 l -13.356,5.544 c -3.781,1.765 -8.315,3.529 -13.609,5.797 v 0.504 c 5.294,1.764 9.828,3.528 13.609,5.041 l 13.356,4.787 v 23.186 l -40.827,-20.917 -41.078,22.178 v -24.194 l 14.617,-6.552 c 4.284,-2.017 8.568,-3.78 13.609,-5.795 v -0.505 c -5.041,-1.765 -9.325,-3.529 -13.609,-5.293 l -14.617,-6.049 v -23.185 z"
       clip-path="url(#SVGID_8_)" /><polygon
       id="polygon102"
       points="920.845,703.625 920.845,676.407 890.854,676.407 890.854,654.734 972.76,654.734 972.76,708.161 954.613,708.161 954.613,676.407 938.988,676.407 938.988,703.625 "
       clip-path="url(#SVGID_8_)" /><path
       id="path104"
       d="m 932.186,717.482 c 26.966,0 42.086,15.372 42.086,38.054 0,22.682 -15.247,38.055 -42.086,38.055 -26.966,0 -42.843,-15.373 -42.843,-38.055 0,-22.682 15.877,-38.054 42.843,-38.054 m 0,53.931 c 14.868,0 23.437,-6.048 23.437,-15.877 0,-9.828 -8.568,-15.877 -23.437,-15.877 -14.869,0 -24.193,6.049 -24.193,15.877 -0.001,9.829 9.323,15.877 24.193,15.877"
       clip-path="url(#SVGID_8_)" /><path
       id="path106"
       d="m 890.854,852.304 27.471,-14.113 v -8.316 h -27.471 v -21.673 h 81.905 v 30.997 c 0,17.642 -6.048,32.762 -26.462,32.762 -11.719,0 -19.404,-5.292 -23.69,-13.231 l -31.753,17.769 z m 44.608,-22.43 v 7.812 c 0,8.569 3.779,13.106 10.836,13.106 7.057,0 9.324,-4.537 9.324,-13.106 v -7.812 z"
       clip-path="url(#SVGID_8_)" /><path
       id="path108"
       d="m 972.76,887.58 v 24.193 c 0,24.949 -11.593,42.086 -40.574,42.086 -28.981,0 -41.331,-17.137 -41.331,-40.826 V 887.58 Z m -64.516,22.933 c 0,11.846 4.788,21.17 23.941,21.17 19.153,0 23.185,-9.324 23.185,-21.17 v -1.26 h -47.126 z"
       clip-path="url(#SVGID_8_)" /></g><g
     clip-path="url(#SVGID_8_)"
     id="g120"
     style="opacity:0.8"
     transform="translate(102)"><g
       id="g118"><defs
         id="defs111"><rect
           id="SVGID_17_"
           x="257.69"
           y="175.83"
           width="24.087999"
           height="51.646" /></defs><clipPath
         id="SVGID_18_"><use
           xlink:href="#SVGID_17_"
           overflow="visible"
           id="use113"
           style="overflow:visible"
           x="0"
           y="0"
           width="100%"
           height="100%" /></clipPath><polygon
         clip-path="url(#SVGID_18_)"
         points="257.69,175.83 263.861,227.476 281.778,223.184 "
         id="polygon116"
         style="fill:#3eba31" /></g></g><g
     clip-path="url(#SVGID_8_)"
     id="g130"
     style="opacity:0.6"><g
       id="g128"><defs
         id="defs123"><rect
           id="SVGID_19_"
           x="257.69"
           y="175.83"
           width="797"
           height="845.33301" /></defs><clipPath
         id="SVGID_20_"><use
           xlink:href="#SVGID_19_"
           overflow="visible"
           id="use125"
           style="overflow:visible"
           x="0"
           y="0"
           width="100%"
           height="100%" /></clipPath></g></g></svg>