<?xml version="1.0" encoding="utf-8"?>
<!-- Generator: Adobe Illustrator 16.0.0, SVG Export Plug-In . SVG Version: 6.00 Build 0)  -->
<!DOCTYPE svg PUBLIC "-//W3C//DTD SVG 1.1//EN" "http://www.w3.org/Graphics/SVG/1.1/DTD/svg11.dtd">
<svg version="1.1" id="Layer_1" xmlns="http://www.w3.org/2000/svg" xmlns:xlink="http://www.w3.org/1999/xlink" x="0px" y="0px"
	 width="999.551px" height="999.551px" viewBox="0 0 999.551 999.551" enable-background="new 0 0 999.551 999.551"
	 xml:space="preserve">
<g>
	<defs>
		<rect id="SVGID_1_" width="999.551" height="999.551"/>
	</defs>
	<clipPath id="SVGID_2_">
		<use xlink:href="#SVGID_1_"  overflow="visible"/>
	</clipPath>
	<rect clip-path="url(#SVGID_2_)" fill="#F3DF49" width="999.551" height="999.551"/>
	<g clip-path="url(#SVGID_2_)">
		<defs>
			<rect id="SVGID_3_" width="999.551" height="999.551"/>
		</defs>
		<clipPath id="SVGID_4_">
			<use xlink:href="#SVGID_3_"  overflow="visible"/>
		</clipPath>
		<g opacity="0.8" clip-path="url(#SVGID_4_)">
			<g>
				<defs>
					<rect id="SVGID_5_" x="-20.31" y="-29.839" width="1042.01" height="876.002"/>
				</defs>
				<clipPath id="SVGID_6_">
					<use xlink:href="#SVGID_5_"  overflow="visible"/>
				</clipPath>
				<polygon clip-path="url(#SVGID_6_)" fill="#FFFFFF" points="-20.31,704.261 645.69,-29.837 1020.702,-29.837 1021.702,101.163
					-20.31,846.163 				"/>
			</g>
		</g>
	</g>
	<polygon clip-path="url(#SVGID_2_)" fill="#FF00D7" points="999.551,585.263 999.551,402.522 264.69,178.498 	"/>
	<g clip-path="url(#SVGID_2_)">
		<defs>
			<rect id="SVGID_7_" width="999.551" height="999.551"/>
		</defs>
		<clipPath id="SVGID_8_">
			<use xlink:href="#SVGID_7_"  overflow="visible"/>
		</clipPath>
		<g clip-path="url(#SVGID_8_)">
			<g>
				<defs>
					<rect id="SVGID_9_" x="264.69" y="178.497" width="756.01" height="553"/>
				</defs>
				<clipPath id="SVGID_10_">
					<use xlink:href="#SVGID_9_"  overflow="visible"/>
				</clipPath>
				<polygon clip-path="url(#SVGID_10_)" fill="#FF0043" points="264.69,178.497 1020.702,597.496 1020.702,731.496 				"/>
			</g>
		</g>
		<path display="none" clip-path="url(#SVGID_8_)" fill="#FFFFFF" d="M153.286,302.927c-10.631,4.173-20.867,1.384-31.282-1.256
			c-0.092-4.38,2.113-7.023,5.381-9.013c3.642-2.218,6.373-1.04,8.763,2.173c0.558,0.75,1.946,1.325,2.908,1.266
			c14.48-0.896,18.171-4.178,20.574-18.068c0.028-0.164,0.038-0.331,0.063-0.495c0.816-5.477-0.175-6.985-5.661-7.213
			c-12.833-0.532-25.061-2.707-35.177-11.482c-0.371-0.321-0.921-0.443-1.275-0.777c-8.771-8.293-18.081-3.029-27.92-1.667
			c1.441,3.276,2.549,5.848,3.7,8.399c6.346,14.061,14.308,27.496,16.842,43.031c0.296,1.813,0.455,4.853-0.463,5.395
			c-1.586,0.936-4.229,0.892-6.135,0.304c-3.409-1.052-5.615-3.349-4.981-7.475c1.059-6.888-1.058-12.87-4.557-18.884
			c-6.178-10.617-11.802-21.576-17.232-32.602c-1.625-3.301-3.139-3.975-6.463-2.938c-4.262,1.33-8.659,2.777-13.055,2.988
			c-6.047,0.289-7.274,0.924-7.335,7.239c-0.062,6.496,0.328,13.017-0.102,19.486c-0.558,8.417-1.526,16.825-2.815,25.16
			c-0.253,1.635-2.707,4.067-4.25,4.146c-4.301,0.224-8.813-7.406-5.692-11.741c2.052-2.85,3.365-6.823,3.504-10.353
			c0.53-13.469,0.679-26.965,0.474-40.444c-0.071-4.626,0.821-7.309,5.661-8.636c6.049-1.659,10.12-5.354,10.037-12.419
			c-0.132-11.2-0.126-22.421,4.319-33.04c-21.729,5.518-35.146-4.241-33.545-18.249c2.057,0.87,3.943,1.887,5.954,2.472
			c4.724,1.374,9.64,3.961,14.245,3.535c16.114-1.492,32.242-2.832,48.202-6.259c6.534-1.403,14.278,1.271,21.109,3.307
			c5.742,1.711,10.815,5.543,16.445,7.779c5.543,2.203,11.332,3.993,17.174,5.159c3.315,0.661,7.149,0.351,10.407-0.644
			c8.62-2.634,13.94-9.932,20.42-15.566c4.001-3.479,7.485-7.739,11.914-10.508c21.937-13.716,46.476-21.877,70.035-32.133
			c1.252-0.544,2.605-0.855,3.912-1.275c0.222,0.357,0.444,0.714,0.666,1.071c-3.39,3.08-6.781,6.159-10.171,9.238
			c0.352,0.385,0.704,0.771,1.056,1.155c5.449-4.015,10.898-8.03,16.348-12.045c0.506,0.441,1.013,0.882,1.519,1.323
			c-3.344,5.919-6.688,11.84-10.585,18.737c1.747,4.831,5.322,10.329,5.469,18.166c0.184,9.807,3.716,20.049,7.934,29.109
			c2.833,6.086,2.968,11.082,1.371,16.924c-1.304,4.774-6.596,9.038-11.581,8.709c-3.217-0.212-6.544-1.242-7.31-4.839
			c-1.125-5.282-4.381-8.78-8.379-11.913c-6.332-4.961-11.577-11.552-20.696-13.429c-3.891,7.053-7.542,14.513-11.982,21.47
			c-4.177,6.543-6.248,13.241-5.135,20.975c0.274,1.904-0.062,4.014-0.596,5.894c-2.174,7.661-4.328,15.343-6.929,22.864
			c-1.046,3.024-2.759,6.114-4.977,8.382c-7.795,7.968-15.898,15.637-23.983,23.316c-2.187,2.077-5.325,3.363-7.001,5.736
			c-11.429,16.176-14.804,34.858-16.409,54.087c-0.206,2.455-1.681,4.803-2.567,7.201c-2.291-1.038-4.936-1.65-6.797-3.201
			c-4.049-3.375-3.931-7.255-0.592-11.268c1.064-1.28,1.626-3.116,2.011-4.791c0.552-2.407,0.623-4.921,1.089-7.353
			C151.271,326.131,155.587,315.418,153.286,302.927"/>
		<polygon clip-path="url(#SVGID_8_)" fill-rule="evenodd" clip-rule="evenodd" points="265.176,147.673 269.509,146.673
			276.509,131.339 261.842,140.006 260.842,143.673 257.176,143.006 257.176,141.006 266.451,133.277 266.842,131.339
			248.509,139.006 241.842,143.339 221.842,148.673 191.176,166.673 171.842,187.339 159.842,192.673 152.509,192.673
			125.176,185.339 115.842,177.339 99.176,174.006 75.842,180.006 67.509,180.339 47.176,182.673 28.508,176.006 29.508,183.006
			33.386,188.441 41.508,194.006 57.176,196.006 63.176,193.339 56.508,207.673 57.176,230.006 53.842,237.339 40.842,243.673
			41.176,294.006 39.176,297.673 36.508,301.339 36.508,306.006 42.508,310.673 46.508,310.673 47.842,306.006 49.176,295.339
			49.842,258.673 53.176,254.006 59.176,254.673 75.842,250.673 77.842,255.339 97.842,294.006 99.176,302.006 97.842,310.673
			101.176,314.006 108.509,314.006 110.176,311.339 109.509,306.006 107.176,297.339 91.286,263.339 91.286,255.339
			101.176,255.339 106.509,253.339 135.176,270.881 159.842,270.881 155.842,293.339 137.842,297.339 132.509,292.339
			127.842,292.673 123.509,296.006 122.509,301.673 134.556,304.602 142.842,304.673 153.509,303.339 152.509,317.339
			147.509,338.339 146.842,347.673 142.509,351.339 146.842,359.339 151.509,361.339 155.509,360.007 157.176,353.339
			156.367,343.104 164.842,316.339 174.842,299.339 177.842,298.673 206.509,270.881 215.842,242.673 214.509,228.006
			233.176,195.339 243.842,197.339 259.842,212.006 263.842,222.006 267.176,224.673 274.509,223.339 275.509,221.673
			279.842,220.006 283.176,206.006 278.509,198.673 269.842,168.673 272.509,162.673 318.509,140.673 268.509,152.673 		"/>
		<g opacity="0.9" clip-path="url(#SVGID_8_)">
			<g>
				<defs>
					<rect id="SVGID_11_" x="-20.31" y="200.223" width="1042.01" height="751.94"/>
				</defs>
				<clipPath id="SVGID_12_">
					<use xlink:href="#SVGID_11_"  overflow="visible"/>
				</clipPath>
				<polygon clip-path="url(#SVGID_12_)" fill="#FFFFFF" points="1021.702,200.223 -20.31,875.163 -20.31,952.163 1021.702,421.223
									"/>
			</g>
		</g>
		<g clip-path="url(#SVGID_8_)">
			<g>
				<defs>
					<rect id="SVGID_13_" x="257.69" y="175.83" width="430" height="845.333"/>
				</defs>
				<clipPath id="SVGID_14_">
					<use xlink:href="#SVGID_13_"  overflow="visible"/>
				</clipPath>
				<polygon clip-path="url(#SVGID_14_)" fill="#44DA3C" points="257.69,175.83 687.69,1021.163 358.69,1021.163 				"/>
			</g>
		</g>
		<polygon clip-path="url(#SVGID_8_)" fill="#118EF4" points="257.69,175.83 1021.702,937.55 1021.702,1021.163 915.69,1021.163
			"/>
		<g clip-path="url(#SVGID_8_)">
			<g>
				<defs>
					<rect id="SVGID_15_" x="257.69" y="175.83" width="658" height="845.333"/>
				</defs>
				<clipPath id="SVGID_16_">
					<use xlink:href="#SVGID_15_"  overflow="visible"/>
				</clipPath>
				<polygon clip-path="url(#SVGID_16_)" fill="#24D6FF" points="257.69,175.83 915.69,1021.163 687.69,1021.163 				"/>
			</g>
		</g>
		<path clip-path="url(#SVGID_8_)" fill="#FFFFFF" d="M838.131,566.441c-17.006-33.687-46.29-58.59-81.613-68.622
			c-31.54-8.957-63.455-9.329-95.259-1.206c-25.826,6.597-48.106,19.418-65.46,39.937c-21.207,25.073-28.992,54.489-27.52,86.85
			c1.369,30.08,10.414,57.156,30.698,79.915c15.309,17.178,33.967,30.02,54.512,39.874c22.794,10.934,46.302,20.381,69.075,31.356
			c11.909,5.739,23.772,12.27,34.119,20.398c15.823,12.432,19.304,35.061,9.536,52.016c-6.58,11.42-17,18.235-29.324,21.905
			c-33.896,10.092-76.429,3.677-104.391-30.512c-5.664-6.926-10.784-14.297-16.419-21.815
			c-25.243,14.618-50.524,29.26-75.567,43.763c0.066,0.96,0.001,1.326,0.126,1.61c0.4,0.912,0.844,1.807,1.315,2.685
			c14.854,27.667,35.365,50.258,62.859,65.413c56.892,31.36,116.681,34.738,177.643,14.249
			c34.166-11.483,59.743-33.814,73.768-67.852c9.031-21.918,10.707-44.86,8.435-68.194c-2.604-26.763-11.947-50.711-30.254-70.81
			c-17.112-18.79-38.138-32.24-60.732-43.131c-22.773-10.978-46.134-20.729-69.139-31.234
			c-11.672-5.329-23.005-11.249-32.396-20.351c-17.18-16.65-17.626-56.711,16.319-66.752c23.489-6.949,44.987-2.078,61.892,16.751
			c5.519,6.147,9.995,13.231,15.264,20.313C789.555,597.63,813.729,582.109,838.131,566.441 M210.204,870.43
			c0.315,1.136,0.396,1.812,0.678,2.391c15.206,31.117,37.401,55.552,69.461,69.535c41.938,18.292,85.107,18.918,128.276,5.077
			c34.209-10.968,57.71-34.056,70.751-67.652c8.454-21.779,10.747-44.512,10.744-67.63c-0.013-103.464-0.035-206.929,0.094-310.393
			c0.006-4.517-1.404-5.568-5.676-5.542c-27.157,0.17-54.314,0.084-81.471,0.087c-7.225,0.001-7.231,0.007-7.231,7.399
			c-0.002,103.63,0.023,207.261-0.058,310.891c-0.006,6.47-0.393,13.008-1.376,19.395c-2.04,13.249-6.863,25.09-19.186,32.312
			c-13.436,7.875-45.618,10.857-62.398-5.996c-7.889-7.924-14.031-17.604-20.8-26.612c-2.067-2.752-3.582-5.919-5.631-9.368
			C260.733,839.846,235.459,855.144,210.204,870.43"/>
		<path clip-path="url(#SVGID_8_)" fill-rule="evenodd" clip-rule="evenodd" d="M838.131,566.441
			c-24.402,15.668-48.576,31.188-72.512,46.558c-5.27-7.082-9.745-14.166-15.265-20.313c-16.903-18.829-38.401-23.7-61.892-16.751
			c-33.945,10.041-33.499,50.102-16.319,66.752c9.391,9.102,20.725,15.021,32.396,20.351c23.004,10.505,46.363,20.257,69.138,31.234
			c22.595,10.891,43.62,24.341,60.733,43.131c18.306,20.099,27.648,44.048,30.254,70.809c2.271,23.334,0.596,46.277-8.436,68.196
			c-14.023,34.036-39.602,56.367-73.768,67.851c-60.962,20.489-120.751,17.111-177.644-14.249
			c-27.492-15.155-48.005-37.746-62.858-65.413c-0.472-0.878-0.915-1.772-1.315-2.685c-0.125-0.284-0.06-0.65-0.126-1.61
			c25.043-14.504,50.323-29.144,75.567-43.763c5.635,7.519,10.755,14.89,16.419,21.815c27.962,34.188,70.494,40.604,104.391,30.512
			c12.324-3.67,22.744-10.486,29.324-21.905c9.769-16.956,6.287-39.584-9.536-52.016c-10.347-8.129-22.21-14.659-34.119-20.399
			c-22.773-10.975-46.281-20.422-69.076-31.355c-20.545-9.854-39.201-22.697-54.511-39.874
			c-20.284-22.759-29.329-49.835-30.698-79.915c-1.473-32.36,6.312-61.776,27.52-86.85c17.353-20.519,39.634-33.34,65.46-39.938
			c31.804-8.123,63.719-7.751,95.259,1.206C791.841,507.852,821.125,532.754,838.131,566.441"/>
		<path clip-path="url(#SVGID_8_)" fill-rule="evenodd" clip-rule="evenodd" d="M210.204,870.43
			c25.256-15.286,50.53-30.584,76.177-46.107c2.049,3.449,3.564,6.616,5.631,9.368c6.769,9.009,12.911,18.688,20.8,26.612
			c16.78,16.854,48.962,13.871,62.398,5.996c12.323-7.222,17.146-19.062,19.186-32.312c0.983-6.387,1.37-12.925,1.376-19.395
			c0.081-103.63,0.056-207.261,0.058-310.891c0-7.393,0.006-7.398,7.231-7.399c27.157-0.003,54.314,0.083,81.471-0.087
			c4.272-0.026,5.682,1.025,5.676,5.542c-0.129,103.464-0.107,206.929-0.094,310.393c0.003,23.118-2.29,45.851-10.744,67.63
			c-13.041,33.597-36.542,56.685-70.751,67.652c-43.169,13.841-86.338,13.215-128.276-5.077
			c-32.06-13.983-54.255-38.418-69.461-69.535C210.6,872.241,210.519,871.565,210.204,870.43"/>
		<path clip-path="url(#SVGID_8_)" d="M932.186,493.708c26.966,0,42.086,15.373,42.086,38.054c0,22.681-15.247,38.054-42.086,38.054
			c-26.966,0-42.843-15.373-42.843-38.054C889.343,509.08,905.22,493.708,932.186,493.708 M932.186,547.639
			c14.868,0,23.437-6.049,23.437-15.877c0-9.829-8.568-15.877-23.437-15.877c-14.869,0-24.193,6.048-24.193,15.877
			C907.992,541.59,917.316,547.639,932.186,547.639"/>
		<path clip-path="url(#SVGID_8_)" d="M932.941,595.011l39.818-20.917v24.193l-13.356,5.544c-3.781,1.765-8.315,3.529-13.609,5.797
			v0.504c5.294,1.764,9.828,3.528,13.609,5.041l13.356,4.787v23.186l-40.827-20.917l-41.078,22.178v-24.194l14.617-6.552
			c4.284-2.017,8.568-3.78,13.609-5.795v-0.505c-5.041-1.765-9.325-3.529-13.609-5.293l-14.617-6.049v-23.185L932.941,595.011z"/>
		<polygon clip-path="url(#SVGID_8_)" points="972.76,654.734 972.76,708.161 954.613,708.161 954.613,676.407 938.988,676.407
			938.988,703.625 920.845,703.625 920.845,676.407 890.854,676.407 890.854,654.734 		"/>
		<path clip-path="url(#SVGID_8_)" d="M932.186,717.482c26.966,0,42.086,15.372,42.086,38.054s-15.247,38.055-42.086,38.055
			c-26.966,0-42.843-15.373-42.843-38.055S905.22,717.482,932.186,717.482 M932.186,771.413c14.868,0,23.437-6.048,23.437-15.877
			c0-9.828-8.568-15.877-23.437-15.877c-14.869,0-24.193,6.049-24.193,15.877C907.992,765.365,917.316,771.413,932.186,771.413"/>
		<path clip-path="url(#SVGID_8_)" d="M890.854,852.304l27.471-14.113v-8.316h-27.471v-21.673h81.905v30.997
			c0,17.642-6.048,32.762-26.462,32.762c-11.719,0-19.404-5.292-23.69-13.231l-31.753,17.769V852.304z M935.462,829.874v7.812
			c0,8.569,3.779,13.106,10.836,13.106s9.324-4.537,9.324-13.106v-7.812H935.462z"/>
		<path clip-path="url(#SVGID_8_)" d="M972.76,887.58v24.193c0,24.949-11.593,42.086-40.574,42.086s-41.331-17.137-41.331-40.826
			V887.58H972.76z M908.244,910.513c0,11.846,4.788,21.17,23.941,21.17s23.185-9.324,23.185-21.17v-1.26h-47.126V910.513z"/>
		<g opacity="0.8" clip-path="url(#SVGID_8_)">
			<g>
				<defs>
					<rect id="SVGID_17_" x="257.69" y="175.83" width="24.088" height="51.646"/>
				</defs>
				<clipPath id="SVGID_18_">
					<use xlink:href="#SVGID_17_"  overflow="visible"/>
				</clipPath>
				<polygon clip-path="url(#SVGID_18_)" fill="#3EBA31" points="257.69,175.83 263.861,227.476 281.778,223.184 				"/>
			</g>
		</g>
		<g opacity="0.6" clip-path="url(#SVGID_8_)">
			<g>
				<defs>
					<rect id="SVGID_19_" x="257.69" y="175.83" width="797" height="845.333"/>
				</defs>
				<clipPath id="SVGID_20_">
					<use xlink:href="#SVGID_19_"  overflow="visible"/>
				</clipPath>
			</g>
		</g>
	</g>
</g>
</svg>
