<svg xmlns="http://www.w3.org/2000/svg" xmlns:xlink="http://www.w3.org/1999/xlink" width="999.55" height="999.55" viewBox="0 0 999.551 999.551">
  <defs>
    <path id="a" d="M0 0h999.55v999.55H0z"/>
  </defs>
  <clipPath id="b">
    <use xlink:href="#a" overflow="visible"/>
  </clipPath>
  <path clip-path="url(#b)" fill="#F3DF49" d="M0 0h999.55v999.55H0z"/>
  <g clip-path="url(#b)">
    <defs>
      <path id="c" d="M0 0h999.55v999.55H0z"/>
    </defs>
    <clipPath id="d">
      <use xlink:href="#c" overflow="visible"/>
    </clipPath>
    <g opacity=".8" clip-path="url(#d)">
      <defs>
        <path id="e" d="M-20.3-29.84h1042v876h-1042z"/>
      </defs>
      <clipPath id="f">
        <use xlink:href="#e" overflow="visible"/>
      </clipPath>
      <path clip-path="url(#f)" fill="#FFF" d="M-20.3 704.26l666-734.1h375l1 131-1042 745"/>
    </g>
  </g>
  <path clip-path="url(#b)" fill="#FF00D7" d="M999.55 585.26V402.52L264.7 178.5"/>
  <g clip-path="url(#b)">
    <defs>
      <path id="g" d="M0 0h999.55v999.55H0z"/>
    </defs>
    <clipPath id="h">
      <use xlink:href="#g" overflow="visible"/>
    </clipPath>
    <g clip-path="url(#h)">
      <defs>
        <path id="i" d="M264.7 178.5h756v553h-756z"/>
      </defs>
      <clipPath id="j">
        <use xlink:href="#i" overflow="visible"/>
      </clipPath>
      <path clip-path="url(#j)" fill="#FF0043" d="M264.7 178.5l756 419v134"/>
    </g>
    <path clip-path="url(#h)" fill-rule="evenodd" clip-rule="evenodd" d="M265.18 147.67l4.33-1 7-15.33-14.6 8.66-1 3.7-3.6-.65v-2l9.3-7.72.4-1.93-18.3 7.6-6.6 4.34-20 5.33-30.6 18-19.4 20.67-12 5.33h-7.3l-27.3-7.33-9.3-8-17-3.34-23.3 6-8.3.34-20.3 2.33L28.5 176l1 7 3.9 5.44 8.1 5.57 15.68 2 6-2.6-6.67 14.4.7 22.4-3.3 7.4-13 6.4.4 50.4-2 3.7-2.6 3.7v4.5l6 4.7h4l1.3-4.7 1.4-10.6.7-36.6 3.4-4.6 6 .7 16.7-4 2 4.7 20 38.7 1.4 8-1.3 8.6 3.3 3.36h7.4l1.7-2.63-.7-5.3-2.3-8.6-15.9-34v-8h9.9l5.3-2 28.7 17.5H160L156 294l-18 4-5.34-5-4.66.3-4.33 3.32-1 5.66 12.05 2.9 8.28.1 10.7-1.3-1 14-5 21-.67 9.3-4.32 3.7 4.4 8 4.7 2 4-1.33 1.7-6.6-.8-10.2 8.5-26.74 10-17 3-.7 28.6-28 9.4-28.2-1.5-14.7 18.7-32.63 10.7 2 16 14.67 4 10 3.4 2.7 7.3-1.4 1-1.7 4.4-1.66 3.4-14-4.6-7.3-8.6-30 2.67-6"/>
    <g opacity=".9" clip-path="url(#h)">
      <defs>
        <path id="k" d="M-20.3 200.22h1042v751.94h-1042z"/>
      </defs>
      <clipPath id="l">
        <use xlink:href="#k" overflow="visible"/>
      </clipPath>
      <path clip-path="url(#l)" fill="#FFF" d="M1021.7 200.22l-1042 674.94v77l1042-530.94"/>
    </g>
    <g clip-path="url(#h)">
      <defs>
        <path id="m" d="M257.7 175.83h430v845.33h-430z"/>
      </defs>
      <clipPath id="n">
        <use xlink:href="#m" overflow="visible"/>
      </clipPath>
      <path clip-path="url(#n)" fill="#44DA3C" d="M257.7 175.83l430 845.33h-329"/>
    </g>
    <path clip-path="url(#h)" fill="#118EF4" d="M257.7 175.83l764 761.72v83.6h-106"/>
    <g clip-path="url(#h)">
      <defs>
        <path id="o" d="M257.7 175.83h658v845.33h-658z"/>
      </defs>
      <clipPath id="p">
        <use xlink:href="#o" overflow="visible"/>
      </clipPath>
      <path clip-path="url(#p)" fill="#24D6FF" d="M257.7 175.83l658 845.33h-228"/>
    </g>
    <path clip-path="url(#h)" fill="#FFF" d="M838.13 566.44c-17-33.7-46.3-58.6-81.6-68.62-31.55-8.96-63.47-9.33-95.27-1.2-25.83 6.6-48.1 19.4-65.46 39.93-21.2 25.07-29 54.5-27.52 86.85 1.37 30.08 10.4 57.16 30.7 79.92 15.3 17.17 33.96 30 54.5 39.87 22.8 10.9 46.3 20.3 69.08 31.3 11.9 5.7 23.78 12.2 34.12 20.4 15.83 12.4 19.3 35 9.54 52-6.58 11.4-17 18.2-29.32 21.9-33.9 10.1-76.43 3.7-104.4-30.5-5.66-7-10.78-14.3-16.4-21.8-25.26 14.6-50.54 29.2-75.58 43.7.06.9 0 1.3.12 1.6.4.9.85 1.8 1.32 2.7 14.85 27.6 35.36 50.2 62.86 65.4 56.9 31.3 116.68 34.7 177.64 14.2 34.17-11.5 59.74-33.8 73.77-67.9 9.03-21.9 10.7-44.9 8.43-68.2-2.6-26.8-11.94-50.7-30.25-70.8-17.1-18.8-38.1-32.3-60.7-43.2-22.7-11-46.1-20.7-69.1-31.2-11.6-5.4-23-11.3-32.4-20.4-17.2-16.7-17.6-56.7 16.3-66.8 23.5-7 45-2.1 61.9 16.7 5.5 6.1 10 13.2 15.3 20.3l72.5-46.6M210.3 870c.4 1.1.4 1.8.7 2.37 15.2 31.14 37.4 55.57 69.5 69.56 42 18.3 85.1 18.9 128.3 5.05 34.2-10.9 57.7-34 70.8-67.6 8.5-21.8 10.8-44.5 10.8-67.67 0-103.4 0-206.9.1-310.4 0-4.5-1.4-5.5-5.62-5.5-27.14.2-54.3.1-81.46.1-7.2 0-7.22 0-7.22 7.4 0 103.6.06 207.3-.02 310.9 0 6.5-.4 13-1.37 19.4-2 13.3-6.8 25.1-19.2 32.3-13.4 7.9-45.6 10.9-62.4-6-7.9-7.9-14-17.6-20.8-26.6-2-2.7-3.5-5.9-5.6-9.4L210.7 870"/>
    <path clip-path="url(#h)" fill-rule="evenodd" clip-rule="evenodd" d="M838.13 566.44L765.63 613c-5.28-7.08-9.76-14.17-15.28-20.3-16.9-18.84-38.4-23.7-61.9-16.77-33.93 10.05-33.5 50.1-16.3 66.76 9.38 9.1 20.72 15 32.4 20.3 23 10.5 46.35 20.2 69.13 31.2 22.6 10.9 43.62 24.3 60.73 43.1 18.4 20.1 27.7 44 30.3 70.8 2.3 23.3.6 46.3-8.4 68.2-14 34-39.6 56.3-73.7 67.8-60.9 20.5-120.7 17.1-177.6-14.3-27.5-15.2-48-37.8-62.8-65.4-.5-.9-.9-1.8-1.3-2.7-.1-.3-.1-.7-.1-1.6l75.6-43.8c5.7 7.5 10.8 14.9 16.4 21.8 28 34.2 70.5 40.6 104.4 30.5 12.4-3.7 22.8-10.5 29.4-21.9 9.8-17 6.3-39.6-9.5-52.1-10.3-8.1-22.2-14.6-34.1-20.4-22.7-11-46.3-20.4-69-31.3-20.6-9.9-39.2-22.7-54.53-39.9-20.3-22.8-29.35-49.9-30.7-79.9-1.5-32.4 6.3-61.8 27.5-86.9 17.3-20.5 39.6-33.4 65.43-40 31.8-8.1 63.7-7.7 95.3 1.2 35.3 10 64.6 34.9 81.6 68.6M210.7 870c25.2-15.3 50.5-30.6 76.1-46.1 2.07 3.4 3.6 6.6 5.65 9.3 6.8 9 12.9 18.7 20.8 26.6 16.8 16.88 49 13.9 62.4 6 12.35-7.2 17.2-19.1 19.2-32.3 1-6.4 1.4-12.92 1.4-19.4.1-103.62.05-207.3.05-310.9 0-7.4 0-7.4 7.23-7.4 27.13 0 54.3.1 81.44-.1 4.25 0 5.66 1 5.66 5.58-.1 103.47-.1 206.94-.1 310.4 0 23.1-2.3 45.85-10.76 67.63C466.7 913 443.2 936.1 409 947.1c-43.2 13.87-86.3 13.25-128.3-5.05-32.02-14-54.2-38.4-69.42-69.55-.3-.6-.34-1.3-.7-2.4"/>
    <path clip-path="url(#h)" d="M932.2 493.7c26.95 0 42.07 15.38 42.07 38.06s-15.24 38.06-42.08 38.06c-27 0-42.9-15.38-42.9-38.06s15.9-38.05 42.8-38.05m0 54c14.8 0 23.4-6 23.4-15.9 0-9.8-8.6-15.8-23.5-15.8s-24.2 6.1-24.2 15.9 9.3 15.9 24.2 15.9m.7 47.4l39.8-20.9v24.2l-13.3 5.5c-3.8 1.8-8.3 3.5-13.6 5.8v.5c5.3 1.8 9.8 3.5 13.6 5l13.3 4.8v23.2l-40.8-20.9-41.1 22.2v-24.2l14.6-6.5c4.2-2 8.5-3.8 13.6-5.8v-.5c-5.1-1.7-9.4-3.5-13.6-5.3l-14.7-6V573l42.1 22.2zm39.8 59.8v53.4h-18.1v-31.8H939v27.2h-18.15v-27.2h-30v-21.7m41.35 62.8c26.95 0 42.07 15.4 42.07 38.1s-15.24 38.1-42.08 38.1c-27 0-42.9-15.4-42.9-38.1s15.9-38.1 42.8-38.1m0 54c14.8 0 23.4-6 23.4-15.8 0-9.84-8.6-15.9-23.5-15.9s-24.2 6.06-24.2 15.9 9.3 15.9 24.2 15.9m-41.3 80.9l27.5-14.1V830h-27.5v-21.7h81.9v31c0 17.65-6.1 32.77-26.5 32.77-11.8 0-19.4-5.3-23.7-13.26l-31.7 17.8v-24.2zm44.6-22.5v7.8c0 8.57 3.8 13.1 10.8 13.1s9.3-4.52 9.3-13.1v-8h-20.1zm37.3 57.7V912c0 24.95-11.6 42.1-40.6 42.1s-41.2-17.2-41.2-40.9v-25.5h81.9zm-64.5 22.96c0 11.85 4.8 21.2 23.9 21.2s23.1-9.35 23.1-21.2v-1.25H908v1.3z"/>
    <g opacity=".8" clip-path="url(#h)">
      <defs>
        <path id="q" d="M257.7 175.83h24.08v51.65h-24.1z"/>
      </defs>
      <clipPath id="r">
        <use xlink:href="#q" overflow="visible"/>
      </clipPath>
      <path clip-path="url(#r)" fill="#3EBA31" d="M257.7 175.83l6.16 51.65 17.92-4.3"/>
    </g>
  </g>
</svg>
